# xmcd CD database file
#
# Track frame offsets:
#	150
#	23744
#	45286
#	64592
#	85663
#	112727
#	139565
#	172317
#	232071
#
# Disc length: 3418 seconds
#
# Revision: 0
# Processed by: cddbd v1.5.2PL0 Copyright (c) Steve Scherf et al.
# Submitted via: CDex 1.70beta2
#
DISCID=680d5809
DTITLE=Eric Clapton Live 90 - Kindhearted Woman Blues RAH 5, Mar 94 2
DYEAR=1994
DGENRE=Blues
TTITLE0=Stone Free
TTITLE1=Circus Left Town
TTITLE2=Tears In Heaven
TTITLE3=Five Long Years
TTITLE4=Tearing Us Apart
TTITLE5=Crossroads
TTITLE6=Groaning The Blues
TTITLE7=Layla
TTITLE8=Ain't Nobody's Business
EXTD=YEAR: 1994
EXTT0=
EXTT1=
EXTT2=
EXTT3=
EXTT4=
EXTT5=
EXTT6=
EXTT7=
EXTT8=
PLAYORDER=
